<?xml version="1.0" encoding="utf-8"?>
<!-- Generator: Adobe Illustrator 16.0.0, SVG Export Plug-In . SVG Version: 6.00 Build 0)  -->
<!DOCTYPE svg PUBLIC "-//W3C//DTD SVG 1.1//EN" "http://www.w3.org/Graphics/SVG/1.1/DTD/svg11.dtd">
<svg version="1.1" id="Layer_1" xmlns="http://www.w3.org/2000/svg" xmlns:xlink="http://www.w3.org/1999/xlink" x="0px" y="0px"
	 width="1798px" height="838px" viewBox="0 0 1798 838" enable-background="new 0 0 1798 838" xml:space="preserve">
<path d="M1605.93,726.11c83.26-75.11,127.271-181.69,127.271-308.3c0-121.061-40.56-224.15-117.29-298.201
	C1544.82,51,1446.17,9.86,1329.75,0H1798v838h-485.5c53.29-2.939,103.48-12.41,149.63-28.45
	C1517.42,790.32,1565.8,762.32,1605.93,726.11z"/>
<path d="M1495.975,213.171c48.431,51.69,74.03,122.6,74.03,205.16c0,78.519-27.479,150.91-77.37,203.87
	c-26.079,27.7-57.43,49.2-93.18,64.068c-37.18,15.461-78.38,23.23-122.47,23.23h-187.49v-581h188.87
	C1368.775,128.5,1444.025,157.72,1495.975,213.171z"/>
<rect stroke="#000000" stroke-miterlimit="10" width="927" height="838"/>
</svg>
