<?xml version="1.0" encoding="utf-8"?>
<!-- Generator: Adobe Illustrator 16.0.0, SVG Export Plug-In . SVG Version: 6.00 Build 0)  -->
<!DOCTYPE svg PUBLIC "-//W3C//DTD SVG 1.1//EN" "http://www.w3.org/Graphics/SVG/1.1/DTD/svg11.dtd">
<svg version="1.1" id="Layer_1" xmlns="http://www.w3.org/2000/svg" xmlns:xlink="http://www.w3.org/1999/xlink" x="0px" y="0px"
	 width="64.625px" height="69px" viewBox="0 0 64.625 69" enable-background="new 0 0 64.625 69" xml:space="preserve">
<path fill="#23A1DC" d="M24.41,17.495c-8.499,3.377-14.176,11.923-14.176,21.267v6.222c0,0.853-0.738,1.563-1.569,1.563H5.529
	c-2.558,0-4.654-2.154-4.654-4.775v-7.029c0-2.071,1.301-3.891,3.229-4.526c0.792-0.261,1.644,0.185,1.898,0.995
	c0.254,0.81-0.184,1.678-0.975,1.939c-0.669,0.221-1.145,0.876-1.145,1.592v7.029c0,0.922,0.747,1.693,1.646,1.693h1.696v-4.702
	c0-5.323,1.533-10.438,4.495-14.79c2.893-4.251,6.873-7.484,11.57-9.352c0.774-0.307,1.646,0.087,1.946,0.881
	C25.536,16.295,25.184,17.188,24.41,17.495z M48.846,18.373c0,3.233-2.566,5.863-5.723,5.863c-3.154,0-5.722-2.63-5.722-5.863
	s2.567-5.864,5.722-5.864C46.279,12.509,48.846,15.14,48.846,18.373z M45.838,18.373c0-1.533-1.217-2.781-2.715-2.781
	c-1.496,0-2.714,1.248-2.714,2.781s1.218,2.781,2.714,2.781C44.621,21.154,45.838,19.906,45.838,18.373z M63.875,34.742v7.029
	c0,2.621-2.013,4.775-4.57,4.775h-2.778c-0.913,2.912-2.36,5.786-4.31,8.306c-3.203,4.141-7.611,7.203-12.513,8.719
	c-0.221,2.536-2.305,4.554-4.835,4.554h-4.904c-2.677,0-4.854-2.223-4.854-4.967c0-2.742,2.178-4.966,4.854-4.966h4.904
	c1.762,0,3.307,0.935,4.158,2.378c9.27-2.939,15.637-11.745,15.637-21.809c0-3.102-0.596-6.105-1.771-8.931l-1.979-0.906
	c-0.852,0.663-1.773,1.209-2.756,1.635l-0.246,2.435c-0.081,1.604-1.902,2.596-4.788,2.596c-2.894,0-4.715-0.995-4.789-2.604
	L38.09,30.56c-0.982-0.425-1.904-0.972-2.756-1.635l-2.188,1.002c-1.396,0.728-3.143-0.394-4.585-2.953
	c-0.521-0.924-0.893-1.887-1.048-2.712c-0.324-1.723,0.354-2.505,0.85-2.837l1.944-1.444c-0.063-0.533-0.095-1.071-0.095-1.609
	c0-0.547,0.033-1.094,0.098-1.635l-1.943-1.443c-1.323-0.87-1.253-2.982,0.194-5.552c1.442-2.562,3.19-3.682,4.586-2.952
	l2.209,1.012c0.845-0.654,1.759-1.195,2.729-1.616l0.249-2.457c0.074-1.608,1.895-2.603,4.788-2.603
	c2.888,0,4.709,0.992,4.789,2.598l0.249,2.462c0.972,0.421,1.885,0.962,2.729,1.616l2.205-1.01c0.529-0.274,1.529-0.484,2.822,0.664
	c0.62,0.551,1.248,1.362,1.768,2.287c1.443,2.561,1.516,4.673,0.201,5.547l-1.949,1.447c0.064,0.541,0.098,1.089,0.098,1.635
	c0,0.539-0.031,1.078-0.095,1.609l1.948,1.447c1.312,0.875,1.24,2.988-0.203,5.547c-0.52,0.925-1.147,1.737-1.768,2.288
	c0,0.001-0.001,0.005-0.002,0.005c1.166,3.021,1.757,6.219,1.757,9.505c0,1.589-0.137,3.15-0.407,4.691h2.039
	c0.898,0,1.562-0.771,1.562-1.692v-7.029c0-0.717-0.442-1.371-1.111-1.592c-0.791-0.262-1.2-1.13-0.945-1.939
	c0.254-0.811,1.084-1.256,1.875-0.996C62.613,30.852,63.875,32.671,63.875,34.742z M36.715,63.136c0-0.126-0.012-0.265-0.035-0.384
	c-0.004-0.018-0.008-0.02-0.011-0.038c-0.187-0.841-0.923-1.438-1.8-1.438h-4.904c-1.018,0-1.847,0.84-1.847,1.883
	c0,1.044,0.829,1.885,1.847,1.885h4.904C35.887,65.043,36.715,64.179,36.715,63.136z M53.423,14.796l2.36-1.751
	c-0.069-0.361-0.27-0.994-0.702-1.762s-0.867-1.263-1.138-1.504l-2.671,1.223c-0.537,0.246-1.165,0.148-1.606-0.25
	c-0.997-0.899-2.136-1.573-3.385-2.003c-0.559-0.192-0.956-0.702-1.017-1.304l-0.302-2.979c-0.339-0.12-0.975-0.259-1.84-0.259
	c-0.863,0-1.5,0.139-1.839,0.259l-0.302,2.979c-0.061,0.602-0.459,1.111-1.017,1.303c-1.249,0.431-2.388,1.104-3.384,2.004
	c-0.441,0.398-1.07,0.496-1.607,0.25l-2.671-1.224c-0.271,0.242-0.705,0.737-1.138,1.504c-0.432,0.768-0.633,1.401-0.702,1.762
	l2.36,1.752c0.477,0.354,0.709,0.962,0.592,1.554c-0.131,0.661-0.196,1.342-0.196,2.021c0,0.674,0.064,1.347,0.192,2.002
	c0.115,0.59-0.117,1.196-0.593,1.55l-2.355,1.749c0.069,0.361,0.27,0.994,0.702,1.761c0.432,0.768,0.867,1.262,1.137,1.503
	l2.651-1.213c0.538-0.246,1.168-0.147,1.609,0.253c1.001,0.907,2.146,1.588,3.404,2.02c0.559,0.192,0.956,0.701,1.018,1.303
	l0.299,2.952c0.339,0.119,0.975,0.258,1.839,0.258s1.5-0.139,1.84-0.258l0.298-2.952c0.062-0.602,0.459-1.11,1.018-1.303
	c1.258-0.433,2.403-1.112,3.404-2.02c0.441-0.4,1.07-0.499,1.609-0.253l2.65,1.213c0.271-0.241,0.705-0.735,1.138-1.503
	s0.634-1.4,0.702-1.762l-2.355-1.748c-0.477-0.354-0.707-0.96-0.592-1.552c0.127-0.653,0.191-1.325,0.191-2
	c0-0.68-0.066-1.36-0.195-2.021C52.715,15.758,52.945,15.15,53.423,14.796z"/>
</svg>
